@startuml
rectangle Authentication{

  entity "Profile" as profile {
    * id: number
    --
    * full_name: string
    * email: string
  }

  entity "Host" as host {
    * id: number
    --
    * user_id: number
    * ip: string
    hostname: string
    first_login: timestamp
    last_login: timestamp
  }

  entity "User" as user {
    * id: number
    --
    * username: string
    * domain: string
    * active: boolean
  }

  entity "Password" as password {
    * id: number
    --
    * user_id: number
    * shadowed_password: string
    * created_at: date
    * expires_at: date
  }

  user ||--o| profile
  user ||--o{ host
  user ||--o| password
}
@enduml
