@startuml
package @inventarium/mercatus <<No-Lines>>{
  !include ../entities/mercatus.puml
  class "Price" as price <<BaseEntity>> {
    + GUID id
    + Double value
    + "Ask" | "Bid" type
    + Date updated_at
    + Date created_at
  }

  class "ProductPriceComponent" as productPriceComponent {
    + Double suggestedPriceTag
    + FormFactoryService formFactoryService <<Injector>>
  }


  object "ProductPriceFormTemplate" as productPriceFormTemplate {
    <label> Precio </label>
    <input name="precio" />
  }

  object "ProductPriceFormControl" as productPriceFormControl <<FormControl>> {
    precio: [0, Validators.required]
  }

  productPriceComponent --* productPriceFormTemplate
  productPriceComponent --* productPriceFormControl

  class "InventariumMercatusService" as inventariumMercatusServiceClass {}
  class "Client" as client { }
}

@enduml
