@startuml

package "@inventarium/core" as inventariumCorePackage {
  rectangle "Services" {
    package @inventarum/storage-service {}
      '  package @inventarium/pages {}
    }
  class "InventariumService" as inventariumServiceClass <<NgModule>> { }
  interface "InventariumService" as inventariumServiceInterface {}
  inventariumServiceInterface <|-- inventariumServiceClass

  tagged <|-- product

}

@enduml
